<svg width="248" height="245" viewBox="0 0 248 245" fill="none" xmlns="http://www.w3.org/2000/svg">
<path d="M4.83274 110.833C-1.61091 117.276 -1.61091 127.724 4.83274 134.167L109.838 239.173C116.282 245.616 126.729 245.616 133.173 239.173C139.616 232.729 139.616 222.282 133.173 215.838L39.8345 122.5L133.173 29.1619C139.616 22.7183 139.616 12.271 133.173 5.82738C126.729 -0.61627 116.282 -0.61627 109.838 5.82738L4.83274 110.833ZM231.5 139C240.613 139 248 131.613 248 122.5C248 113.387 240.613 106 231.5 106L231.5 139ZM16.5 139L231.5 139L231.5 106L16.5 106L16.5 139Z" fill="black"/>
</svg>
